# xmcd
#
# Track frame offsets: 
#        150
#        22215
#        35170
#        71620
#        94585
#        106815
#        128980
#        147150
#        164477
#        186442
#        214707
#
# Disc length: 2998 seconds
#
# Revision: 7
# Processed by: cddbd v1.5.2PL0 Copyright (c) Steve Scherf et al.
# Submitted via: ExactAudioCopy v1.0b1
#
DISCID=a40bb40b
DTITLE=Don Byron - A Fine Line
DYEAR=2000
DGENRE=Jazz
TTITLE0=Check Up
TTITLE1=Zwielicht (Twilight)
TTITLE2=Glitter And Be Gay
TTITLE3=Basquiat
TTITLE4=It's Over
TTITLE5=Creepin'
TTITLE6=Nessun Dorma
TTITLE7=Soldier In The Rain
TTITLE8=Reach Out I'll Be There
TTITLE9=The Ladies Who Lunch
TTITLE10=Larghetto
EXTD=YEAR: 2000
EXTT0=
EXTT1=
EXTT2=
EXTT3=
EXTT4=
EXTT5=
EXTT6=
EXTT7=
EXTT8=
EXTT9=
EXTT10=
PLAYORDER=
